<svg width="82" height="48" viewBox="0 0 82 48" fill="none" xmlns="http://www.w3.org/2000/svg">
<path d="M22.7285 6.15106C29.0597 0.342786 42.3623 -1.35282 51.9998 1.06704C45.9235 5.26306 43.9987 11.0769 42.9122 17.0989C41.2355 26.3955 41.8626 35.5257 46.9295 44.1619C47.5097 45.1497 48.2809 46.0627 49.0621 47.1423C46.2589 47.9526 43.4287 48.1636 40.5481 47.8806C33.533 47.1923 28.114 44.2645 24.0062 39.6078C22.363 37.7459 20.8943 35.7754 19.345 33.8523C14.5832 27.944 9.00001 26.3457 0.878231 28.5657C0.680539 28.6184 0.482655 28.6657 -0.000244141 28.785C1.60942 25.7685 3.95321 23.565 7.03501 21.886C10.2877 20.1126 13.8859 19.2691 17.7791 19.2246C19.6736 19.2024 21.5851 19.2024 23.4528 18.9888C28.0068 18.4671 30.0454 16.6744 30.1628 13.2971C30.2835 9.83086 27.7284 7.08907 23.7044 6.36204C23.396 6.30647 23.0906 6.22607 22.732 6.14551L22.7285 6.15106Z" fill="white"/>
<path d="M54.9998 41.9999C73.1107 26.414 63.046 11.5058 55.4998 5.99988C55.4998 5.99988 58.0005 17.0965 58.0528 23.9999C58.108 31.29 54.9998 41.9999 54.9998 41.9999Z" fill="white"/>
<path d="M65.9998 38.9999C80.2263 26.0117 72.3203 13.5881 66.3925 8.99988C66.3925 8.99988 68.3569 18.2471 68.398 23.9999C68.4414 30.075 65.9998 38.9999 65.9998 38.9999Z" fill="white"/>
<path d="M74.9998 34.9999C87.448 25.4752 80.5302 16.3646 75.3434 12.9999C75.3434 12.9999 77.0623 19.7812 77.0982 23.9999C77.1362 28.455 74.9998 34.9999 74.9998 34.9999Z" fill="white"/>
</svg>
