<svg width="310" height="84" viewBox="0 0 310 84" fill="none" xmlns="http://www.w3.org/2000/svg">
<path d="M20.117 83.1815C17.749 83.1815 15.669 82.9895 13.877 82.6055C12.085 82.2215 10.517 81.2935 9.17297 79.8215C7.89297 78.3495 7.25297 76.0775 7.25297 73.0055C7.25297 68.7175 8.53297 62.9575 11.093 55.7255C13.717 48.4935 17.141 41.2295 21.365 33.9335C18.165 34.1255 15.637 34.6055 13.781 35.3735C11.925 36.1415 10.709 37.3255 10.133 38.9255C10.389 38.9255 10.645 39.2455 10.901 39.8855C11.221 40.5255 11.381 41.1975 11.381 41.9015C11.381 43.0535 10.869 43.9815 9.84497 44.6855C8.82097 45.3255 7.54097 45.6455 6.00497 45.6455C4.21297 45.6455 2.77296 45.1655 1.68496 44.2055C0.596965 43.2455 0.0529649 41.8695 0.0529649 40.0775C0.0529649 37.9015 0.884965 35.9175 2.54896 34.1255C4.27697 32.3335 6.64497 30.9255 9.65297 29.9015C12.661 28.8135 15.989 28.2695 19.637 28.2695C20.981 28.2695 22.645 28.3655 24.629 28.5575C29.877 20.2375 35.413 13.4535 41.237 8.20554C47.125 2.89354 52.725 0.237543 58.037 0.237543C61.109 0.237543 63.637 0.685543 65.621 1.58154L50.549 72.2375H36.725L44.117 37.3895C41.749 36.3015 39.573 35.5015 37.589 34.9895C35.605 34.4775 33.493 34.1255 31.253 33.9335C27.605 41.8055 24.597 49.8695 22.229 58.1255C19.925 66.3175 18.773 72.8775 18.773 77.8055C18.773 80.2375 19.221 82.0295 20.117 83.1815ZM50.549 7.05355C47.797 8.52555 44.917 11.2775 41.909 15.3095C38.965 19.2775 36.085 24.1095 33.269 29.8055C37.877 30.7015 41.781 31.8215 44.981 33.1655L50.549 7.05355ZM97.97 72.8135C94.066 72.8135 91.186 71.7895 89.33 69.7415C87.538 67.6295 86.642 65.0375 86.642 61.9655C86.642 60.6215 86.802 59.1175 87.122 57.4535C87.442 55.7255 87.762 54.0615 88.082 52.4615C88.466 50.8615 88.722 49.8375 88.85 49.3895C89.362 47.1495 89.842 44.9415 90.29 42.7655C90.738 40.5895 90.962 38.8295 90.962 37.4855C90.962 34.2215 89.81 32.5895 87.506 32.5895C85.842 32.5895 84.37 33.4215 83.09 35.0855C81.81 36.6855 80.786 38.7975 80.018 41.4215L73.49 72.2375H59.666L69.842 24.2375H83.666L82.61 29.2295C85.81 25.6455 89.554 23.8535 93.842 23.8535C97.106 23.8535 99.698 24.7495 101.618 26.5415C103.538 28.3335 104.498 31.0535 104.498 34.7015C104.498 36.5575 104.274 38.6375 103.826 40.9415C103.378 43.1815 102.738 45.9335 101.906 49.1975C101.394 51.1815 100.914 53.1335 100.466 55.0535C100.082 56.9095 99.89 58.3815 99.89 59.4695C99.89 60.7495 100.178 61.7415 100.754 62.4455C101.33 63.1495 102.322 63.5015 103.73 63.5015C105.65 63.5015 107.186 62.8295 108.338 61.4855C109.49 60.0775 110.642 57.9335 111.794 55.0535H115.826C113.458 62.0935 110.706 66.8295 107.57 69.2615C104.498 71.6295 101.298 72.8135 97.97 72.8135ZM127.815 19.0535C125.703 19.0535 123.911 18.3175 122.439 16.8455C120.967 15.3735 120.231 13.5815 120.231 11.4695C120.231 9.35755 120.967 7.56555 122.439 6.09355C123.911 4.55754 125.703 3.78954 127.815 3.78954C129.927 3.78954 131.719 4.55754 133.191 6.09355C134.727 7.56555 135.495 9.35755 135.495 11.4695C135.495 13.5815 134.727 15.3735 133.191 16.8455C131.719 18.3175 129.927 19.0535 127.815 19.0535ZM121.287 72.8135C118.215 72.8135 115.719 71.8535 113.799 69.9335C111.943 68.0135 111.015 65.1335 111.015 61.2935C111.015 59.6935 111.271 57.6135 111.783 55.0535L118.311 24.2375H132.135L125.223 56.8775C124.967 57.8375 124.839 58.8615 124.839 59.9495C124.839 61.2295 125.127 62.1575 125.703 62.7335C126.343 63.2455 127.367 63.5015 128.775 63.5015C130.631 63.5015 132.359 62.7335 133.959 61.1975C135.559 59.5975 136.711 57.5495 137.415 55.0535H141.447C139.079 61.9655 136.039 66.6695 132.327 69.1655C128.615 71.5975 124.935 72.8135 121.287 72.8135ZM146.688 72.8135C143.616 72.8135 141.12 71.8535 139.2 69.9335C137.344 67.9495 136.416 65.0055 136.416 61.1015C136.416 59.5015 136.672 57.4215 137.184 54.8615L147.456 6.76554L161.664 4.84555L150.624 56.6855C150.368 57.6455 150.24 58.5735 150.24 59.4695C150.24 62.0295 151.552 63.3095 154.176 63.3095C155.328 63.3095 156.352 63.1175 157.248 62.7335C156.992 65.9335 155.84 68.4295 153.792 70.2215C151.808 71.9495 149.44 72.8135 146.688 72.8135ZM219.92 73.8695C214.928 73.8695 212.432 71.7255 212.432 67.4375C212.432 66.0295 212.624 64.4295 213.008 62.6375C213.456 60.7815 214.064 58.4135 214.832 55.5335C215.728 52.5255 216.4 49.9655 216.848 47.8535C217.296 45.7415 217.52 43.8535 217.52 42.1895C217.52 37.8375 215.6 35.6615 211.76 35.6615C210.736 35.6615 209.68 35.7895 208.592 36.0455L200.912 72.2375H187.088L200.144 11.1815L214.352 9.26155L209.648 31.4375H210.416C212.912 31.4375 215.216 30.5735 217.328 28.8455C219.44 27.1175 221.072 24.9735 222.224 22.4135C223.44 19.7895 224.048 17.2295 224.048 14.7335C224.048 11.7895 223.152 9.38955 221.36 7.53355C219.632 5.61354 217.008 4.65354 213.488 4.65354C208.304 4.65354 203.76 5.58154 199.856 7.43755C195.952 9.29355 192.912 11.9815 190.736 15.5015C188.624 19.0215 187.568 23.1815 187.568 27.9815C187.568 30.3495 187.792 32.0135 188.24 32.9735C188.688 33.8695 188.912 34.3815 188.912 34.5095C185.456 34.5095 182.864 33.8055 181.136 32.3975C179.472 30.9255 178.64 28.5255 178.64 25.1975C178.64 21.1015 180.304 17.1335 183.632 13.2935C187.024 9.38955 191.344 6.25355 196.592 3.88555C201.84 1.45354 207.088 0.237543 212.336 0.237543C217.136 0.237543 221.168 0.941544 224.432 2.34954C227.696 3.75755 230.128 5.64555 231.728 8.01355C233.328 10.3175 234.128 12.8455 234.128 15.5975C234.128 18.6055 233.2 21.6135 231.344 24.6215C229.488 27.6295 226.96 30.0935 223.76 32.0135C226.192 32.7175 227.888 33.9015 228.848 35.5655C229.872 37.1655 230.384 39.1815 230.384 41.6135C230.384 43.4695 230.16 45.4535 229.712 47.5655C229.264 49.6135 228.624 52.1735 227.792 55.2455C227.28 57.2295 226.8 59.1815 226.352 61.1015C225.904 63.0215 225.68 64.6215 225.68 65.9015C225.68 67.3735 226 68.6855 226.64 69.8375C227.344 70.9895 228.272 71.7895 229.424 72.2375C225.52 73.3255 222.352 73.8695 219.92 73.8695ZM247.24 72.8135C243.592 72.8135 240.552 71.5655 238.12 69.0695C235.688 66.5735 234.472 62.6695 234.472 57.3575C234.472 52.6215 235.4 47.6615 237.256 42.4775C239.176 37.2295 241.992 32.8135 245.704 29.2295C249.48 25.5815 253.96 23.7575 259.144 23.7575C261.768 23.7575 263.72 24.2055 265 25.1015C266.28 25.9975 266.92 27.1815 266.92 28.6535V29.3255L267.976 24.2375H281.8L274.888 56.8775C274.632 57.8375 274.504 58.8615 274.504 59.9495C274.504 62.7015 275.816 64.0775 278.44 64.0775C280.232 64.0775 281.768 63.2455 283.048 61.5815C284.392 59.9175 285.448 57.7415 286.216 55.0535H290.248C287.88 61.9655 284.936 66.6695 281.416 69.1655C277.96 71.5975 274.472 72.8135 270.952 72.8135C268.264 72.8135 266.088 72.0775 264.424 70.6055C262.824 69.0695 261.864 66.8615 261.544 63.9815C259.688 66.6055 257.608 68.7495 255.304 70.4135C253.064 72.0135 250.376 72.8135 247.24 72.8135ZM253.48 63.5015C255.08 63.5015 256.648 62.7655 258.184 61.2935C259.784 59.7575 260.872 57.6775 261.448 55.0535L266.056 33.3575C266.056 32.5255 265.736 31.7255 265.096 30.9575C264.456 30.1255 263.464 29.7095 262.12 29.7095C259.56 29.7095 257.256 31.2135 255.208 34.2215C253.16 37.1655 251.56 40.7495 250.408 44.9735C249.256 49.1335 248.68 52.8135 248.68 56.0135C248.68 59.2135 249.128 61.2615 250.024 62.1575C250.984 63.0535 252.136 63.5015 253.48 63.5015ZM302.283 19.0535C300.171 19.0535 298.379 18.3175 296.907 16.8455C295.435 15.3735 294.699 13.5815 294.699 11.4695C294.699 9.35755 295.435 7.56555 296.907 6.09355C298.379 4.55754 300.171 3.78954 302.283 3.78954C304.395 3.78954 306.187 4.55754 307.659 6.09355C309.195 7.56555 309.963 9.35755 309.963 11.4695C309.963 13.5815 309.195 15.3735 307.659 16.8455C306.187 18.3175 304.395 19.0535 302.283 19.0535ZM295.755 72.8135C292.683 72.8135 290.187 71.8535 288.267 69.9335C286.411 68.0135 285.483 65.1335 285.483 61.2935C285.483 59.6935 285.739 57.6135 286.251 55.0535L292.779 24.2375H306.603L299.691 56.8775C299.435 57.8375 299.307 58.8615 299.307 59.9495C299.307 61.2295 299.595 62.1575 300.171 62.7335C300.811 63.2455 301.835 63.5015 303.243 63.5015C304.395 63.5015 305.419 63.3095 306.315 62.9255C306.059 66.1255 304.907 68.5895 302.859 70.3175C300.875 71.9815 298.507 72.8135 295.755 72.8135Z" fill="#5769F8"/>
</svg>
