<svg width="23" height="19" viewBox="0 0 23 19" fill="none" xmlns="http://www.w3.org/2000/svg">
<path d="M1.60994 9.20371H8.35891C8.65723 9.20371 8.94334 9.0852 9.15428 8.87426C9.36523 8.66331 9.48374 8.3772 9.48374 8.07888V1.32991C9.48374 1.03158 9.36523 0.74548 9.15428 0.534533C8.94334 0.323587 8.65723 0.205078 8.35891 0.205078H1.60994C1.31161 0.205078 1.02551 0.323587 0.814562 0.534533C0.603616 0.74548 0.485107 1.03158 0.485107 1.32991V8.07888C0.485107 8.3772 0.603616 8.66331 0.814562 8.87426C1.02551 9.0852 1.31161 9.20371 1.60994 9.20371ZM2.73477 2.45474H7.23408V6.95405H2.73477V2.45474ZM12.8582 4.70439H21.8569C22.1552 4.70439 22.4413 4.58589 22.6522 4.37494C22.8632 4.16399 22.9817 3.87789 22.9817 3.57957C22.9817 3.28124 22.8632 2.99514 22.6522 2.78419C22.4413 2.57324 22.1552 2.45474 21.8569 2.45474H12.8582C12.5599 2.45474 12.2738 2.57324 12.0629 2.78419C11.8519 2.99514 11.7334 3.28124 11.7334 3.57957C11.7334 3.87789 11.8519 4.16399 12.0629 4.37494C12.2738 4.58589 12.5599 4.70439 12.8582 4.70439ZM12.8582 15.9527H1.60994C1.31161 15.9527 1.02551 16.0712 0.814562 16.2821C0.603616 16.4931 0.485107 16.7792 0.485107 17.0775C0.485107 17.3758 0.603616 17.6619 0.814562 17.8729C1.02551 18.0838 1.31161 18.2023 1.60994 18.2023H12.8582C13.1566 18.2023 13.4427 18.0838 13.6536 17.8729C13.8645 17.6619 13.9831 17.3758 13.9831 17.0775C13.9831 16.7792 13.8645 16.4931 13.6536 16.2821C13.4427 16.0712 13.1566 15.9527 12.8582 15.9527ZM21.8569 11.4534H1.60994C1.31161 11.4534 1.02551 11.5719 0.814562 11.7828C0.603616 11.9938 0.485107 12.2799 0.485107 12.5782C0.485107 12.8765 0.603616 13.1626 0.814562 13.3736C1.02551 13.5845 1.31161 13.703 1.60994 13.703H21.8569C22.1552 13.703 22.4413 13.5845 22.6522 13.3736C22.8632 13.1626 22.9817 12.8765 22.9817 12.5782C22.9817 12.2799 22.8632 11.9938 22.6522 11.7828C22.4413 11.5719 22.1552 11.4534 21.8569 11.4534ZM21.8569 6.95405H12.8582C12.5599 6.95405 12.2738 7.07256 12.0629 7.28351C11.8519 7.49445 11.7334 7.78056 11.7334 8.07888C11.7334 8.3772 11.8519 8.66331 12.0629 8.87426C12.2738 9.0852 12.5599 9.20371 12.8582 9.20371H21.8569C22.1552 9.20371 22.4413 9.0852 22.6522 8.87426C22.8632 8.66331 22.9817 8.3772 22.9817 8.07888C22.9817 7.78056 22.8632 7.49445 22.6522 7.28351C22.4413 7.07256 22.1552 6.95405 21.8569 6.95405Z" fill="white"/>
</svg>
