<svg width="463" height="488" viewBox="0 0 463 488" fill="none" xmlns="http://www.w3.org/2000/svg">
<path fill-rule="evenodd" clip-rule="evenodd" d="M451.87 0C476.554 -5.09743e-05 450.829 309.791 451.87 333.286C452.932 357.27 438.658 380.169 423.111 401.098C407.474 422.147 386.568 440.666 361.197 455.345C335.53 470.196 307.056 484.936 274.824 486.895C242.985 488.829 215.437 470.894 184.131 466.105C152.504 461.266 116.049 471.644 88.9162 458.453C61.9278 445.332 54.8332 418.187 40.7626 396.402C27.3918 375.7 11.9682 355.58 7.74062 332.77C3.45549 309.648 -8.63235 -1.91258e-05 15.4991 0C71 4.39882e-05 414 7.82013e-05 451.87 0Z" fill="#7470D4"/>
</svg>
