<svg width="22" height="23" viewBox="0 0 22 23" fill="none" xmlns="http://www.w3.org/2000/svg">
<g clip-path="url(#clip0_984_63)">
<path d="M18.5692 17.1709C18.081 17.186 17.6295 17.3373 17.2462 17.5903L14.343 14.6271C14.9126 13.875 15.2722 12.9235 15.3142 11.8868L17.3749 11.6709C17.6702 12.4354 18.3724 12.9648 19.1927 12.9648C20.2729 12.9648 21.1483 12.0476 21.1483 10.916C21.1483 9.7844 20.2729 8.86727 19.1927 8.86727C18.2096 8.86727 17.3972 9.62627 17.2581 10.6149L15.1699 10.7909C14.8759 9.2289 13.8928 7.9584 12.5737 7.32452L12.978 6.1709H13.3192C14.7617 6.1599 15.9259 4.9334 15.9259 3.4209C15.9259 1.90152 14.7512 0.670898 13.3009 0.670898C11.8506 0.670898 10.6759 1.90152 10.6759 3.4209C10.6759 4.44115 11.2061 5.33215 11.9936 5.80652L11.6392 6.98215C11.3413 6.9079 11.0001 6.86665 10.6496 6.86665C9.56024 6.86665 8.56274 7.27365 7.78706 7.95152L3.85743 3.82102C4.04249 3.51302 4.15274 3.13765 4.15274 2.73477C4.15274 1.59627 3.27074 0.672273 2.18399 0.672273C1.09724 0.672273 0.215244 1.59627 0.215244 2.73477C0.215244 3.8664 1.08543 4.78627 2.16299 4.79727C2.53181 4.7959 2.87699 4.68865 3.16968 4.50302L7.09799 8.63352C6.47587 9.44202 6.10049 10.4815 6.10049 11.6145V11.6764V11.8936L5.23424 12.0449C4.82343 11.0549 3.89681 10.3756 2.82056 10.3756C1.37024 10.3756 0.195557 11.6063 0.195557 13.1256C0.195557 14.645 1.37024 15.8756 2.82056 15.8756C4.27087 15.8756 5.44556 14.645 5.44556 13.1256C5.44556 13.0981 5.44556 13.072 5.44424 13.0445L6.27112 12.9111C6.58874 14.0703 7.27912 15.0259 8.19524 15.6501L7.46549 17.2836C7.25418 17.2163 7.01006 17.1764 6.75806 17.1736C6.75018 17.1736 6.74231 17.1736 6.73574 17.1736C5.28543 17.1736 4.11074 18.4043 4.11074 19.9236C4.11074 21.443 5.28543 22.6736 6.73574 22.6736C8.18606 22.6736 9.36074 21.443 9.36074 19.9236C9.36074 19.0436 8.96568 18.2585 8.35143 17.7553L9.09431 16.1699C9.57206 16.3706 10.1272 16.4875 10.7074 16.4875C11.8191 16.4875 12.8349 16.0599 13.6159 15.3545L16.4719 18.275C16.1437 18.7288 15.9469 19.3035 15.9469 19.925C15.9469 21.4444 17.1216 22.675 18.5719 22.675C20.0222 22.675 21.1969 21.4444 21.1969 19.925C21.1969 18.4056 20.0222 17.175 18.5719 17.175L18.5692 17.1709ZM6.75674 21.2959C6.03224 21.2959 5.44424 20.6799 5.44424 19.9209C5.44424 19.1619 6.03224 18.5459 6.75674 18.5459C7.48124 18.5459 8.06924 19.1619 8.06924 19.9209C8.06924 20.6799 7.48124 21.2959 6.75674 21.2959ZM10.6942 15.1084C8.88168 15.1084 7.41299 13.5698 7.41299 11.6709C7.41299 9.77202 8.88168 8.2334 10.6942 8.2334C12.5068 8.2334 13.9755 9.77202 13.9755 11.6709C13.9755 13.5698 12.5068 15.1084 10.6942 15.1084Z" fill="white"/>
</g>
<defs>
<clipPath id="clip0_984_63">
<rect width="21" height="22" fill="white" transform="translate(0.194336 0.670898)"/>
</clipPath>
</defs>
</svg>
