<svg width="26" height="24" viewBox="0 0 26 24" fill="none" xmlns="http://www.w3.org/2000/svg">
<path d="M0.605713 3.48479C0.605713 2.82175 0.869105 2.18586 1.33795 1.71702C1.80679 1.24818 2.44267 0.984787 3.10571 0.984787H23.1057C23.7688 0.984787 24.4046 1.24818 24.8735 1.71702C25.3423 2.18586 25.6057 2.82175 25.6057 3.48479V17.2348C25.6057 17.8978 25.3423 18.5337 24.8735 19.0026C24.4046 19.4714 23.7688 19.7348 23.1057 19.7348H17.3732L13.9895 23.1185C13.7551 23.3529 13.4372 23.4845 13.1057 23.4845C12.7743 23.4845 12.4564 23.3529 12.222 23.1185L8.83821 19.7348H3.10571C2.44267 19.7348 1.80679 19.4714 1.33795 19.0026C0.869105 18.5337 0.605713 17.8978 0.605713 17.2348V3.48479ZM23.1057 3.48479H3.10571V17.2348H9.35571C9.68721 17.2349 10.0051 17.3666 10.2395 17.601L13.1057 20.4673L15.972 17.601C16.2063 17.3666 16.5242 17.2349 16.8557 17.2348H23.1057V3.48479ZM5.60571 7.85979C5.60571 7.52827 5.73741 7.21032 5.97183 6.9759C6.20625 6.74148 6.52419 6.60979 6.85571 6.60979H19.3557C19.6872 6.60979 20.0052 6.74148 20.2396 6.9759C20.474 7.21032 20.6057 7.52827 20.6057 7.85979C20.6057 8.19131 20.474 8.50925 20.2396 8.74367C20.0052 8.97809 19.6872 9.10979 19.3557 9.10979H6.85571C6.52419 9.10979 6.20625 8.97809 5.97183 8.74367C5.73741 8.50925 5.60571 8.19131 5.60571 7.85979ZM5.60571 12.8598C5.60571 12.5283 5.73741 12.2103 5.97183 11.9759C6.20625 11.7415 6.52419 11.6098 6.85571 11.6098H14.3557C14.6872 11.6098 15.0052 11.7415 15.2396 11.9759C15.474 12.2103 15.6057 12.5283 15.6057 12.8598C15.6057 13.1913 15.474 13.5092 15.2396 13.7437C15.0052 13.9781 14.6872 14.1098 14.3557 14.1098H6.85571C6.52419 14.1098 6.20625 13.9781 5.97183 13.7437C5.73741 13.5092 5.60571 13.1913 5.60571 12.8598Z" fill="white"/>
</svg>
