<svg width="447" height="331" viewBox="0 0 447 331" fill="none" xmlns="http://www.w3.org/2000/svg">
<path fill-rule="evenodd" clip-rule="evenodd" d="M221.552 2.5453C251.954 2.35929 283.421 -2.92604 311.678 5.54648C340.142 14.081 362.803 31.4386 380.631 50.2428C397.74 68.2882 401.401 90.9883 412.242 111.617C423.725 133.468 445.829 152.79 446.87 176.286C447.932 200.269 433.658 223.168 418.111 244.097C402.474 265.147 381.568 283.666 356.197 298.345C330.53 313.196 302.056 327.936 269.824 329.895C237.985 331.829 210.438 313.894 179.132 309.105C147.504 304.266 111.049 314.644 83.9165 301.453C56.928 288.332 49.8334 261.187 35.7628 239.402C22.392 218.7 6.96834 198.58 2.74081 175.77C-1.54432 152.648 1.87417 129.052 11.1854 106.789C20.5303 84.446 35.9393 63.7313 56.8426 46.415C77.6922 29.1433 102.887 14.4193 132.074 6.64538C160.564 -0.943009 191.342 2.73014 221.552 2.5453Z" fill="#7470D4"/>
</svg>
