<svg enable-background="new 0 0 512 512" viewBox="0 0 512 512" xmlns="http://www.w3.org/2000/svg"><circle cx="256" cy="256" fill="#f0c48a" r="207"/><path d="m100.063 472.494h-40.452v-412.763c0-11.17 9.056-20.225 20.226-20.225 11.17 0 20.226 9.055 20.226 20.225z" fill="#fd919e"/><path d="m452.389 472.494h-40.451v-412.763c0-11.17 9.055-20.225 20.226-20.225 11.17 0 20.226 9.055 20.226 20.225v412.763z" fill="#e8677d"/><path d="m100.063 478.357h-40.451c-3.238 0-5.863-2.625-5.863-5.863v-412.763c0-14.385 11.703-26.088 26.088-26.088s26.088 11.704 26.088 26.088v412.763c0 3.238-2.624 5.863-5.862 5.863zm-34.589-11.725h28.726v-406.9c0-7.92-6.443-14.363-14.363-14.363-7.919 0-14.363 6.443-14.363 14.363z" fill="#4c4372"/><path d="m452.388 478.357h-40.451c-3.238 0-5.863-2.625-5.863-5.863v-412.763c0-14.385 11.704-26.088 26.089-26.088s26.088 11.704 26.088 26.088v412.763c0 3.238-2.625 5.863-5.863 5.863zm-34.588-11.725h28.726v-406.9c0-7.92-6.443-14.363-14.363-14.363s-14.363 6.443-14.363 14.363z" fill="#4c4372"/><path d="m490.792 188.829h-469.584c-8.475 0-15.345-6.87-15.345-15.345v-82.775c0-8.475 6.87-15.345 15.345-15.345h469.585c8.475 0 15.345 6.871 15.345 15.345v82.774c-.001 8.475-6.871 15.346-15.346 15.346z" fill="#d3e6f8"/><path d="m118.771 188.829h-53.731l-29.313-113.465h53.732z" fill="#a4cff2"/><path d="m237.939 188.829h-53.732l-29.313-113.465h53.732z" fill="#a4cff2"/><path d="m357.106 188.829h-53.732l-29.313-113.465h53.732z" fill="#a4cff2"/><path d="m476.273 188.829h-53.731l-29.314-113.465h53.732z" fill="#a4cff2"/><path d="m490.792 390.982h-469.584c-8.475 0-15.345-6.87-15.345-15.345v-82.775c0-8.475 6.87-15.345 15.345-15.345h469.585c8.475 0 15.345 6.87 15.345 15.345v82.775c-.001 8.475-6.871 15.345-15.346 15.345z" fill="#a4cff2"/><path d="m118.771 390.982h-53.731l-29.313-113.464h53.732z" fill="#7babf1"/><path d="m237.939 390.982h-53.732l-29.313-113.464h53.732z" fill="#7babf1"/><path d="m357.106 390.982h-53.732l-29.313-113.464h53.732z" fill="#7babf1"/><path d="m476.273 390.982h-53.731l-29.314-113.464h53.732z" fill="#7babf1"/><g fill="#4c4372"><path d="m490.792 194.691h-469.584c-11.694 0-21.208-9.513-21.208-21.208v-82.774c0-11.693 9.514-21.207 21.208-21.207h469.585c11.694 0 21.208 9.514 21.208 21.207v82.774c-.001 11.695-9.515 21.208-21.209 21.208zm-469.584-113.464c-5.229 0-9.482 4.254-9.482 9.482v82.774c0 5.229 4.254 9.482 9.482 9.482h469.585c5.229 0 9.483-4.253 9.483-9.482v-82.774c0-5.229-4.254-9.482-9.483-9.482z"/><path d="m490.792 396.845h-469.584c-11.694 0-21.208-9.514-21.208-21.207v-82.775c0-11.693 9.514-21.207 21.208-21.207h469.585c11.694 0 21.208 9.514 21.208 21.207v82.775c-.001 11.693-9.515 21.207-21.209 21.207zm-469.584-113.465c-5.229 0-9.482 4.254-9.482 9.482v82.775c0 5.229 4.254 9.482 9.482 9.482h469.585c5.229 0 9.483-4.254 9.483-9.482v-82.775c0-5.229-4.254-9.482-9.483-9.482z"/><path d="m118.791 194.691c-.007 0-.013 0-.019 0h-53.732c-2.673 0-5.007-1.809-5.676-4.396l-29.313-113.464c-.454-1.755-.069-3.623 1.041-5.056 1.11-1.434 2.821-2.273 4.635-2.273h53.732c2.673 0 5.008 1.808 5.676 4.396l29.192 112.995c.212.606.328 1.258.328 1.936-.001 3.237-2.626 5.862-5.864 5.862zm-49.211-11.725h41.622l-26.283-101.739h-41.623z"/><path d="m237.958 194.691c-.007 0-.013 0-.02 0h-53.732c-2.673 0-5.008-1.809-5.676-4.396l-29.312-113.464c-.454-1.755-.069-3.623 1.042-5.056 1.11-1.434 2.821-2.273 4.635-2.273h53.732c2.673 0 5.008 1.808 5.676 4.396l29.191 112.995c.212.606.328 1.258.328 1.936-.001 3.237-2.626 5.862-5.864 5.862zm-49.21-11.725h41.622l-26.285-101.739h-41.621z"/><path d="m357.125 194.691c-.005 0-.012 0-.019 0h-53.732c-2.673 0-5.008-1.809-5.677-4.396l-29.313-113.464c-.453-1.755-.068-3.623 1.041-5.056 1.11-1.434 2.822-2.273 4.635-2.273h53.732c2.673 0 5.008 1.808 5.677 4.396l29.19 112.995c.213.606.328 1.258.328 1.936.001 3.237-2.624 5.862-5.862 5.862zm-49.211-11.725h41.622l-26.283-101.739h-41.622z"/><path d="m476.292 194.691c-.005 0-.012 0-.019 0h-53.732c-2.673 0-5.008-1.809-5.677-4.396l-29.313-113.464c-.453-1.755-.068-3.623 1.042-5.056 1.11-1.434 2.822-2.273 4.635-2.273h53.732c2.673 0 5.008 1.808 5.676 4.396l29.191 112.995c.213.606.328 1.258.328 1.936 0 3.237-2.625 5.862-5.863 5.862zm-49.211-11.725h41.622l-26.283-101.739h-41.622z"/><path d="m118.791 396.845c-.007 0-.013 0-.019 0h-53.732c-2.673 0-5.007-1.808-5.676-4.396l-29.313-113.465c-.454-1.756-.069-3.623 1.041-5.056 1.11-1.434 2.821-2.273 4.635-2.273h53.732c2.673 0 5.008 1.808 5.676 4.396l29.192 112.995c.212.606.328 1.257.328 1.936-.001 3.238-2.626 5.863-5.864 5.863zm-49.211-11.725h41.622l-26.283-101.74h-41.623z"/><path d="m237.958 396.845c-.007 0-.013 0-.02 0h-53.732c-2.673 0-5.008-1.808-5.676-4.396l-29.314-113.465c-.454-1.756-.069-3.623 1.042-5.056 1.11-1.434 2.821-2.273 4.635-2.273h53.732c2.673 0 5.008 1.808 5.676 4.396l29.191 112.995c.212.606.328 1.257.328 1.936.001 3.238-2.624 5.863-5.862 5.863zm-49.21-11.725h41.622l-26.284-101.74h-41.621z"/><path d="m357.125 396.845c-.005 0-.012.001-.019 0h-53.732c-2.673 0-5.008-1.808-5.677-4.396l-29.313-113.465c-.453-1.756-.068-3.623 1.041-5.056 1.11-1.434 2.822-2.273 4.635-2.273h53.732c2.673 0 5.008 1.808 5.677 4.396l29.19 112.995c.213.606.328 1.257.328 1.936.001 3.238-2.624 5.863-5.862 5.863zm-49.211-11.725h41.622l-26.283-101.74h-41.622z"/><path d="m476.292 396.845c-.005 0-.012.001-.019 0h-53.732c-2.673 0-5.008-1.808-5.677-4.396l-29.313-113.465c-.453-1.756-.068-3.623 1.042-5.056 1.11-1.434 2.822-2.273 4.635-2.273h53.732c2.673 0 5.008 1.808 5.676 4.396l29.191 112.995c.213.606.328 1.257.328 1.936 0 3.238-2.625 5.863-5.863 5.863zm-49.211-11.725h41.622l-26.283-101.74h-41.622z"/></g></svg>